#!OML:ASF F:\VICON\USERDATA\INSTALL\rory3\rory3.ASF
:FULLY-SPECIFIED
:DEGREES
28
root -0.26285020670790066 17.85392567462269 1.7968544942035845 4.172455080731636 5.49695349990303 -1.150841755813678
lfemur 2.8886865258521315 -2.4453052324130606 -24.251995754802042
ltibia 45.493690634288
lfoot 0.17359356633795547 -10.14643303075592
ltoes -15.276047552567984
rfemur -32.02016215163648 1.2321959826203206 25.644393525537314
rtibia 49.10806445743055
rfoot 5.412517501960376 -11.545550322426273
rtoes -2.9284773368801553
lowerback 14.310240758804978 -0.4351917872278608 -1.3919967098873964
upperback -1.237211602858888 -0.6172073987029183 1.8252269336979496
thorax -9.505065390405472 -0.16159501145090105 3.046533612137806
lowerneck -22.18392707437646 -3.077873596185113 -1.764205733629311
upperneck 12.525142674497365 -4.089035801778991 2.179516961660768
head 7.5411963762056775 -1.7919274085808776 0.4350091933060046
lclavicle -3.012493940798603e-15 8.525469715163825e-16
lhumerus -42.59387766727281 -18.776924036942763 97.92431786610486
lradius 114.4855114241236
lwrist 34.57867836913383
lhand -24.799585980431512 3.59627258576152
lfingers 7.12502
lthumb 1.7050018308848442 33.55352099124347
rclavicle -3.012493940798603e-15 8.525469715163825e-16
rhumerus -59.3966639289078 2.728117942560063 -93.0039820693798
rradius 105.1703799621382
rwrist -8.696601346067741
rhand -17.597210702488635 39.909678419244706
rfingers 7.12502
rthumb 8.658632406148275 10.14144504556812
29
root -0.29208430441044475 17.884665548944938 2.3175659668916584 4.068128527899444 5.622674012309615 -1.1990429379196073
lfemur 3.209100084201191 -2.048840515996635 -24.22732916712053
ltibia 50.24921859781199
lfoot 3.5662090955833423 -11.658660078383011
ltoes -14.962647282887708
rfemur -33.383676338894084 0.6386579978347242 25.846886404283385
rtibia 50.99722929330869
rfoot 7.127320513920944 -10.937296897538287
rtoes -1.8709786467419325
lowerback 14.442741160135716 -0.49658321408911177 -1.3307803824120554
upperback -1.2405095978500429 -0.6825792116705198 1.9509944430457724
thorax -9.574315299909932 -0.19276254588575548 3.075572441114363
lowerneck -22.211577793289415 -2.9827243031835184 -1.7458223377398043
upperneck 12.588271740625665 -3.9455505124393726 2.1125005573555233
head 7.557717714918352 -1.7334426195271466 0.4120795034494658
lclavicle -3.1345101566257328e-15 7.640446282696646e-16
lhumerus -42.33557272007474 -18.71970488771519 98.00835502220632
lradius 115.09398588793837
lwrist 34.512333928698446
lhand -24.84956561386761 3.2292934588655458
lfingers 7.12502
lthumb 1.656734684753281 33.18787956671508
rclavicle -3.1345101566257328e-15 7.640446282696646e-16
rhumerus -60.490696876839216 2.116413964802245 -92.77981006106793
rradius 104.48644194341294
rwrist -8.360133698654868
rhand -17.34639742615344 40.058579357319786
rfingers 7.12502
rthumb 8.90066916033565 10.291368968612993
30
root -0.32968665381289897 17.919817121449192 2.629584638868544 3.905672248653136 5.535556705576283 -1.509065279549976
lfemur 2.4133776688363167 -1.6739789423249498 -23.735154117287635
ltibia 55.31229215438533
lfoot 6.832687600374014 -12.877497980261598
ltoes -14.733992500521808
rfemur -33.92049920147231 0.3681103479440365 26.461447623893342
rtibia 51.29620558050534
rfoot 7.248092951813635 -10.008503843766015
rtoes -0.18882656858180846
lowerback 14.6061401813956 -0.5478277348567993 -1.0918206147277452
upperback -1.307617660666822 -0.7111316862850021 2.166577493294996
thorax -9.674503219977455 -0.2081455134182627 3.026444349236617
lowerneck -22.18089970758896 -2.818619648255411 -1.7270451755578113
upperneck 12.630452415188051 -3.717668669004617 2.012298202057772
head 7.5615181519256485 -1.6307144810996304 0.3852341057926655
lclavicle -3.4326066298577985e-15 5.478254655680058e-16
lhumerus -42.44051438826784 -18.744193361877272 98.18640535571515
lradius 115.57838551720434
lwrist 34.56116585497861
lhand -25.068092745664707 2.7243880031648353
lfingers 7.12502
lthumb 1.4457351928411544 32.68569227841707
rclavicle -3.4326066298577985e-15 5.478254655680058e-16
rhumerus -61.388012250068044 1.763709382332296 -92.57930691065872
rradius 103.89175214320757
rwrist -8.140243886152199
rhand -17.247929511993483 40.07170916180456
rfingers 7.12502
rthumb 8.995673821426164 10.306310226440555
31
root -0.3892084966728306 17.97693986694246 3.4173061007329775 3.6776421739715044 5.542750407930881 -1.73718396060922
lfemur 1.619489622135033 -1.378963921352222 -23.191654076287392
ltibia 60.94814967404979
lfoot 9.830716956375397 -14.01884190969654
ltoes -14.657513481984765
rfemur -34.15746766845937 -0.35667447675405306 27.06958882226209
rtibia 54.13230148116189
rfoot 7.655056126964297 -8.690841545471992
rtoes -0.03183054386070561
lowerback 14.857135917574768 -0.575308392107454 -0.8355590188868376
upperback -1.3107042050396862 -0.7088647225496509 2.3665894741132143
thorax -9.786176170301168 -0.21175784159535227 3.0215039050538954
lowerneck -22.170987467037833 -2.7609002232868294 -1.7454790207443094
upperneck 12.757485107244836 -3.626757748753505 1.9881941692049772
head 7.590175254743402 -1.592180346473636 0.38726417602100355
lclavicle -3.2839810252153898e-15 6.556285022966877e-16
lhumerus -42.685803562150994 -18.746781582612353 98.61048033630414
lradius 116.19125487516087
lwrist 34.52635909524477
lhand -24.75875732291151 2.6292357732690856
lfingers 7.12502
lthumb 1.7444749962463404 32.59197719589347
rclavicle -3.2839810252153898e-15 6.556285022966877e-16
rhumerus -61.83290232303878 1.4743771003066177 -92.42186541919581
rradius 103.32298838192679
rwrist -7.697607059988915
rhand -17.19302033881475 39.9109953030706
rfingers 7.12502
rthumb 9.048661911924466 10.149164086986744
32
root -0.4434795819892808 18.05680612716756 4.2140532733029445 3.4264885117801294 5.354984924607515 -2.2276984047038972
lfemur -0.9043650685183113 -1.0697781654237686 -22.050723266515078
ltibia 66.68074094079785
lfoot 12.07796429131489 -14.976498086471858
ltoes -15.5638908981911
rfemur -33.02449190308077 -0.38850136390568113 28.03698968604007
rtibia 54.8071040299114
rfoot 7.057986059756434 -7.394522464630713
rtoes 2.445560187992299
lowerback 15.014918122121228 -0.5320088876451168 -0.38100015202106974
upperback -1.3019173910499373 -0.579719682013005 2.608845350855063
thorax -9.85368905223325 -0.164099949483981 2.8270218312724253
lowerneck -22.048555067912428 -2.711127561866074 -1.713987607907619
upperneck 12.859288073644663 -3.5734127924829813 1.8992613105295866
head 7.599640146333773 -1.5681517850634465 0.365791905236691
lclavicle -3.4908680329075147e-15 5.055665518904587e-16
lhumerus -43.71183309114403 -18.48231791302248 99.05682225294433
lradius 115.82582995476143
lwrist 34.20315379995754
lhand -24.424810245641705 2.881162510602184
lfingers 7.12502
lthumb 2.066996448622689 32.84463686341339
rclavicle -3.4908680329075147e-15 5.055665518904587e-16
rhumerus -61.71351441768924 1.4742652675340473 -92.49265013729799
rradius 103.01241565635785
rwrist -7.560812682072969
rhand -16.976538619579557 39.73618353852578
rfingers 7.12502
rthumb 9.25757079248083 9.980980910088954
